<svg width="60" height="60" viewBox="0 0 60 60" fill="none" xmlns="http://www.w3.org/2000/svg">
<rect width="60" height="60" rx="16" fill="#0D6EFD"/>
<path fill-rule="evenodd" clip-rule="evenodd" d="M29.7956 24.9795C29.109 24.9795 28.4865 25.019 28.1359 25.0784L26.4171 25.3679C22.5375 26.0212 19.6751 29.419 19.6751 33.4221C19.6751 35.5056 18.6448 37.4574 16.9194 38.6196L16.7242 38.7511C16.2331 39.0819 15.7002 39.3454 15.1394 39.5341L12.9077 40.2859C12.151 40.5408 11.3309 40.1339 11.076 39.3772C10.8211 38.6206 11.228 37.8005 11.9847 37.5455L14.2164 36.7939C14.5315 36.6877 14.8317 36.5394 15.1087 36.3528L15.3039 36.2214C16.2246 35.6012 16.7835 34.5521 16.7835 33.4221C16.7835 28.0291 20.644 23.4078 25.9369 22.5165L27.6526 22.2275C28.2394 22.1281 29.0498 22.0879 29.7956 22.0879C30.5411 22.0879 31.3511 22.1279 31.9381 22.2274L33.6544 22.5165C38.9473 23.4078 42.8078 28.0291 42.8078 33.4221C42.8078 34.5521 43.3668 35.6012 44.2875 36.2214L44.4826 36.3528C44.7596 36.5394 45.0597 36.6877 45.3749 36.7939L47.6066 37.5455C48.3633 37.8005 48.7702 38.6206 48.5153 39.3772C48.2605 40.1339 47.4405 40.5408 46.6836 40.2859L44.4519 39.5341C43.8911 39.3454 43.3581 39.0819 42.8671 38.7511L42.6719 38.6196C40.9465 37.4574 39.9162 35.5056 39.9162 33.4221C39.9162 29.419 37.0537 26.0212 33.1742 25.3679L31.455 25.0784C31.1048 25.0189 30.4825 24.9795 29.7956 24.9795ZM23.8197 36.1205C24.2988 35.4817 25.205 35.3523 25.8438 35.8314C26.4827 36.3104 26.612 37.2166 26.133 37.8555L24.3508 40.2318C24.3366 40.2507 24.3227 40.2692 24.3089 40.2877C24.0651 40.6129 23.8735 40.8685 23.6527 41.0994C23.1094 41.6674 22.4466 42.1075 21.7123 42.3877C21.4138 42.5017 21.1038 42.5792 20.7095 42.6775C20.6872 42.6831 20.6645 42.6888 20.6417 42.6944L17.1845 43.5588C16.3824 43.7593 15.8197 44.4801 15.8197 45.3067C15.8197 46.3018 16.6264 47.1085 17.6214 47.1085H18.9395C21.9196 47.1085 24.8193 46.142 27.2034 44.354L30.8559 41.6145C31.4947 41.1355 32.401 41.2648 32.88 41.9037C33.359 42.5425 33.2297 43.4488 32.5908 43.9278L30.8468 45.2358L31.7949 45.5912C32.8241 45.9772 33.2883 46.1507 33.7546 46.2966C35.1584 46.7353 36.6111 46.9987 38.0796 47.0808C38.5674 47.108 39.063 47.1085 40.1622 47.1085H41.9698C42.9649 47.1085 43.7716 46.3018 43.7716 45.3067C43.7716 44.4801 43.2089 43.7593 42.4068 43.5588L39.5661 42.8487C39.5129 42.8354 39.4605 42.8222 39.4084 42.8093C38.4916 42.5807 37.7681 42.4005 37.1216 42.0276C36.9282 41.9162 36.7422 41.7927 36.5646 41.6577C35.9701 41.2066 35.5231 40.6098 34.9567 39.8534C34.9245 39.8106 34.8922 39.7672 34.8592 39.7232L33.4583 37.8555C32.9793 37.2166 33.1086 36.3104 33.7475 35.8314C34.3863 35.3523 35.2925 35.4817 35.7716 36.1205L37.1725 37.9883C37.8828 38.9356 38.0814 39.1789 38.3127 39.3545C38.3935 39.4158 38.4781 39.4719 38.566 39.5226C38.8176 39.6677 39.1189 39.7562 40.2676 40.0434L43.1081 40.7536C45.1975 41.2758 46.6632 43.1532 46.6632 45.3067C46.6632 47.8989 44.562 50.0001 41.9698 50.0001H40.1136C39.0755 50.0001 38.496 50.0001 37.9183 49.9679C36.2117 49.8725 34.5234 49.5664 32.892 49.0565C32.3397 48.8838 31.797 48.6802 30.8251 48.3157L28.0638 47.2803C25.3582 49.0507 22.1883 50.0001 18.9395 50.0001H17.6214C15.0294 50.0001 12.9281 47.8989 12.9281 45.3067C12.9281 43.1532 14.3938 41.2758 16.4831 40.7536L19.9403 39.8892C20.4332 39.766 20.5649 39.7306 20.6811 39.6862C21.0148 39.559 21.3161 39.3589 21.5631 39.1008C21.649 39.0108 21.7327 38.9032 22.0375 38.4968L23.8197 36.1205Z" fill="white"/>
<path d="M34.6152 14.8193C34.6152 17.4809 32.4575 19.6386 29.7959 19.6386C27.1343 19.6386 24.9766 17.4809 24.9766 14.8193C24.9766 12.1577 27.1343 10 29.7959 10C32.4575 10 34.6152 12.1577 34.6152 14.8193Z" fill="white"/>
</svg>
